<svg width="112" height="48" viewBox="0 0 112 48" fill="none" xmlns="http://www.w3.org/2000/svg">
<g clip-path="url(#clip0_9311_32184)">
<path d="M36.2621 24.0002C36.2621 32.7253 29.1892 39.7982 20.4641 39.7982C20.1365 39.7982 19.8115 39.7886 19.4892 39.7686C18.1376 39.6866 16.8313 39.434 15.5925 39.0321C15.1212 38.88 14.6594 38.7053 14.2088 38.5112C8.59479 36.0886 4.66602 30.5032 4.66602 24.0002C4.66602 15.2751 11.7389 8.20215 20.4641 8.20215C29.1892 8.20215 36.2621 15.2751 36.2621 24.0002Z" fill="#33ADC1"/>
<path d="M19.4898 39.7683C17.6235 39.6547 15.8452 39.217 14.2094 38.5109C20.3273 30.2631 9.73633 22.4072 9.73633 22.4072L11.2798 22.0261L15.076 21.0894C15.076 21.0891 26.5041 28.0603 19.4898 39.7683Z" fill="#EAE0D3"/>
<path d="M15.5931 39.0321C15.1218 38.88 14.66 38.7052 14.2094 38.5112C20.3273 30.2634 9.73633 22.4075 9.73633 22.4075L11.2798 22.0264C11.654 22.3062 12.1775 22.6705 12.712 23.1702C15.4976 25.7722 19.5387 31.3093 15.5931 39.0321Z" fill="#D6C8B0"/>
<path d="M18.8875 16.9943C18.8875 20.4053 16.1226 23.1702 12.7114 23.1702C9.30037 23.1702 6.53543 20.4053 6.53543 16.9943C6.53543 16.4849 6.59666 15.9903 6.71333 15.5168C6.82928 15.0436 7.00019 14.5917 7.21811 14.1686L4.66602 11.6165L8.84839 12.1755L6.70296 9.51568L11.6075 10.9162L11.0729 8.20215C11.0729 8.20215 15.3396 10.5621 17.3669 12.9358C17.5205 13.1118 17.6637 13.2969 17.797 13.4898C18.4845 14.4853 18.8875 15.6923 18.8875 16.9943Z" fill="#EAE0D3"/>
<path d="M16.0309 15.7333C16.0309 16.5686 15.3538 17.246 14.5185 17.246C13.683 17.246 13.0059 16.5686 13.0059 15.7333C13.0059 14.8978 13.683 14.2207 14.5185 14.2207C15.3538 14.2207 16.0309 14.8978 16.0309 15.7333Z" fill="#2F373B"/>
<path d="M30.2093 16.7314C29.5884 17.0559 28.9339 16.9823 28.4084 16.808C27.7939 16.6051 27.3566 16.2659 27.3566 16.2659C27.3566 16.2659 25.1449 14.0947 26.8466 13.1495C27.3605 12.8646 27.7766 12.8658 28.1066 13.0075H28.1073C28.8715 13.3351 29.1783 14.41 29.1783 14.41C29.1783 14.41 29.7942 12.813 31.1567 13.2965C32.5184 13.7794 31.5552 16.028 30.2093 16.7314Z" fill="#FF648D"/>
<path d="M28.4084 16.808C27.7939 16.6051 27.3566 16.2659 27.3566 16.2659C27.3566 16.2659 25.1449 14.0947 26.8466 13.1495C27.3605 12.8646 27.7766 12.8658 28.1066 13.0075C27.3535 12.9651 27.3296 15.7404 28.4084 16.808Z" fill="#EA2F69"/>
<path d="M15.6017 15.2508C15.6017 15.5119 15.39 15.7235 15.129 15.7235C14.8679 15.7235 14.6562 15.5119 14.6562 15.2508C14.6562 14.99 14.8679 14.7783 15.129 14.7783C15.39 14.7783 15.6017 14.99 15.6017 15.2508Z" fill="white"/>
<path d="M27.909 17.4629C27.909 19.7669 21.6379 26.7625 25.7344 29.6614C26.7584 30.3863 27.8888 30.6225 29.0085 30.5695C30.128 30.6228 31.2583 30.3863 32.2826 29.6614C36.3789 26.7625 30.1077 19.7669 30.1077 17.4629" fill="#FF648D"/>
<path d="M28.839 30.5746C27.7745 30.5977 26.7066 30.3497 25.7344 29.6614C21.6378 26.7625 27.9092 19.7667 27.9092 17.4629H28.5813C28.5813 19.7667 26.1444 26.7625 27.7364 29.6614C28.0828 30.292 28.4605 30.5534 28.839 30.5746Z" fill="#EA2F69"/>
<path d="M28.8379 30.5749C28.8941 30.5744 28.9502 30.5722 29.0064 30.5698C28.9502 30.5768 28.8941 30.5787 28.8379 30.5749Z" fill="#EA2F69"/>
<path d="M29.178 30.5749C29.1219 30.5787 29.0659 30.5768 29.0098 30.5698C29.0659 30.5722 29.1219 30.5744 29.178 30.5749Z" fill="#EA2F69"/>
<path d="M33.132 17.0574L17.5025 19.641C17.5025 19.641 16.957 18.8137 16.7583 17.7169C16.5817 16.7389 16.681 15.5464 17.6915 14.5361L33.132 17.0574Z" fill="#FFD62C"/>
<path d="M33.1315 17.0576L17.502 19.6413C17.502 19.6413 16.9564 18.814 16.7578 17.7172L33.1315 17.0576Z" fill="#FFB92E"/>
<path d="M12.7114 23.1702C9.30037 23.1702 6.53543 20.4052 6.53543 16.9942C6.53543 16.4849 6.59666 15.9902 6.71333 15.5168C6.82928 15.0436 7.00019 14.5916 7.21811 14.1685L4.66602 11.6165L8.84839 12.1755L6.70296 9.51562L11.703 12.3302C11.703 12.3302 8.6148 13.4651 8.6148 17.0574C8.6148 20.6497 12.7114 23.1702 12.7114 23.1702Z" fill="#D6C8B0"/>
</g>
<path d="M100.901 30.8766C100.048 30.8766 99.2832 30.6664 98.6058 30.246C97.9285 29.8138 97.3912 29.2357 96.9941 28.5116C96.6087 27.7758 96.416 26.9466 96.416 26.024C96.416 25.1013 96.6262 24.2721 97.0467 23.5363C97.4788 22.8006 98.0569 22.2224 98.781 21.802C99.5168 21.3699 100.34 21.1538 101.251 21.1538C102.162 21.1538 102.98 21.3699 103.704 21.802C104.428 22.2224 105 22.8006 105.421 23.5363C105.853 24.2721 106.069 25.1013 106.069 26.024H105.386C105.386 26.9466 105.187 27.7758 104.79 28.5116C104.405 29.2357 103.873 29.8138 103.196 30.246C102.518 30.6664 101.753 30.8766 100.901 30.8766ZM101.251 29.3C101.847 29.3 102.378 29.1598 102.845 28.8795C103.313 28.5875 103.68 28.1963 103.949 27.7058C104.218 27.2036 104.352 26.643 104.352 26.024C104.352 25.3933 104.218 24.8327 103.949 24.3422C103.68 23.84 103.313 23.4487 102.845 23.1684C102.378 22.8765 101.847 22.7305 101.251 22.7305C100.667 22.7305 100.136 22.8765 99.657 23.1684C99.1898 23.4487 98.8161 23.84 98.5358 24.3422C98.2671 24.8327 98.1328 25.3933 98.1328 26.024C98.1328 26.643 98.2671 27.2036 98.5358 27.7058C98.8161 28.1963 99.1898 28.5875 99.657 28.8795C100.136 29.1598 100.667 29.3 101.251 29.3ZM105.175 30.8241C104.918 30.8241 104.702 30.7423 104.527 30.5788C104.364 30.4036 104.282 30.1876 104.282 29.9306V27.2503L104.615 25.3933L106.069 26.024V29.9306C106.069 30.1876 105.981 30.4036 105.806 30.5788C105.642 30.7423 105.432 30.8241 105.175 30.8241Z" fill="black"/>
<path d="M95.1357 30.5962C94.9839 30.7364 94.7678 30.8064 94.4875 30.8064C94.2189 30.7948 94.0087 30.713 93.8568 30.5612L89.5998 25.9888L93.6116 21.5041C93.7634 21.3405 93.9736 21.2471 94.2422 21.2238C94.5225 21.2004 94.7386 21.2588 94.8904 21.3989C95.0656 21.5624 95.1649 21.7493 95.1882 21.9595C95.2116 22.1581 95.1474 22.3391 94.9955 22.5026L91.8247 25.9012L95.1882 29.5101C95.3401 29.6619 95.416 29.8429 95.416 30.0531C95.416 30.2517 95.3226 30.4327 95.1357 30.5962ZM88.1983 30.824C87.9414 30.824 87.737 30.7422 87.5852 30.5787C87.4333 30.4035 87.3574 30.1874 87.3574 29.9305V22.1172C87.3574 21.8486 87.4333 21.6325 87.5852 21.469C87.737 21.3055 87.9414 21.2238 88.1983 21.2238C88.4669 21.2238 88.683 21.3055 88.8465 21.469C89.0217 21.6325 89.1093 21.8486 89.1093 22.1172V25.0428H91.3517V26.6896H89.1093V29.9305C89.1093 30.1874 89.0217 30.4035 88.8465 30.5787C88.683 30.7422 88.4669 30.824 88.1983 30.824Z" fill="black"/>
<path d="M80.8034 30.8766C79.834 30.8766 78.9697 30.6723 78.2106 30.2635C77.4631 29.843 76.8733 29.2708 76.4412 28.5467C76.0208 27.8109 75.8105 26.97 75.8105 26.024C75.8105 25.0663 76.0091 24.2254 76.4062 23.5013C76.8149 22.7655 77.3755 22.1932 78.088 21.7845C78.8004 21.364 79.6179 21.1538 80.5406 21.1538C81.4515 21.1538 82.234 21.3582 82.8881 21.767C83.5421 22.164 84.0385 22.7188 84.3771 23.4312C84.7275 24.132 84.9027 24.9437 84.9027 25.8663C84.9027 26.0882 84.8268 26.2751 84.675 26.4269C84.5231 26.5671 84.3304 26.6371 84.0969 26.6371H77.0368V25.2356H84.0443L83.326 25.7262C83.3144 25.1422 83.1976 24.6225 82.9757 24.167C82.7538 23.6998 82.4384 23.332 82.0297 23.0633C81.6209 22.7947 81.1245 22.6604 80.5406 22.6604C79.8749 22.6604 79.3026 22.8064 78.8238 23.0984C78.3566 23.3904 78.0004 23.7933 77.7551 24.3072C77.5099 24.8094 77.3872 25.3816 77.3872 26.024C77.3872 26.6663 77.5332 27.2386 77.8252 27.7408C78.1172 28.243 78.5201 28.6401 79.034 28.9321C79.5479 29.2241 80.1376 29.37 80.8034 29.37C81.1654 29.37 81.5333 29.3058 81.907 29.1773C82.2924 29.0372 82.6019 28.8795 82.8355 28.7043C83.0107 28.5759 83.1976 28.5116 83.3961 28.5116C83.6063 28.4999 83.7874 28.5583 83.9392 28.6868C84.1377 28.862 84.2428 29.0547 84.2545 29.2649C84.2662 29.4752 84.1728 29.6562 83.9742 29.808C83.5771 30.1233 83.0808 30.3803 82.4851 30.5788C81.9012 30.7774 81.3406 30.8766 80.8034 30.8766Z" fill="black"/>
<path d="M69.4355 21.2407C69.6107 21.2407 69.7684 21.2874 69.9085 21.3809C70.0487 21.4743 70.1596 21.6203 70.2414 21.8188L73.8502 29.6497C73.9553 29.8832 73.967 30.0935 73.8853 30.2803C73.8035 30.4555 73.6634 30.5898 73.4648 30.6833C73.2079 30.8 72.986 30.8292 72.7991 30.7709C72.6122 30.7125 72.4546 30.5665 72.3261 30.3329L69.0326 22.8524H69.9261L66.5274 30.3329C66.4223 30.5548 66.2647 30.7008 66.0544 30.7709C65.8559 30.8292 65.634 30.8 65.3887 30.6833C65.1668 30.5781 65.0092 30.438 64.9157 30.2628C64.834 30.0876 64.8515 29.8832 64.9683 29.6497L68.5946 21.8188C68.7698 21.4334 69.0501 21.2407 69.4355 21.2407Z" fill="black"/>
<path d="M59.2897 30.8766C58.3203 30.8766 57.4561 30.6723 56.6969 30.2635C55.9495 29.843 55.3597 29.2708 54.9275 28.5467C54.5071 27.8109 54.2969 26.97 54.2969 26.024C54.2969 25.0663 54.4954 24.2254 54.8925 23.5013C55.3013 22.7655 55.8619 22.1932 56.5743 21.7845C57.2867 21.364 58.1043 21.1538 59.0269 21.1538C59.9379 21.1538 60.7204 21.3582 61.3744 21.767C62.0284 22.164 62.5248 22.7188 62.8635 23.4312C63.2139 24.132 63.389 24.9437 63.389 25.8663C63.389 26.0882 63.3131 26.2751 63.1613 26.4269C63.0095 26.5671 62.8168 26.6371 62.5832 26.6371H55.5232V25.2356H62.5306L61.8124 25.7262C61.8007 25.1422 61.6839 24.6225 61.462 24.167C61.2401 23.6998 60.9248 23.332 60.516 23.0633C60.1072 22.7947 59.6109 22.6604 59.0269 22.6604C58.3612 22.6604 57.7889 22.8064 57.3101 23.0984C56.8429 23.3904 56.4867 23.7933 56.2414 24.3072C55.9962 24.8094 55.8736 25.3816 55.8736 26.024C55.8736 26.6663 56.0195 27.2386 56.3115 27.7408C56.6035 28.243 57.0064 28.6401 57.5203 28.9321C58.0342 29.2241 58.624 29.37 59.2897 29.37C59.6517 29.37 60.0196 29.3058 60.3934 29.1773C60.7788 29.0372 61.0883 28.8795 61.3218 28.7043C61.497 28.5759 61.6839 28.5116 61.8824 28.5116C62.0927 28.4999 62.2737 28.5583 62.4255 28.6868C62.6241 28.862 62.7292 29.0547 62.7408 29.2649C62.7525 29.4752 62.6591 29.6562 62.4605 29.808C62.0635 30.1233 61.5671 30.3803 60.9715 30.5788C60.3875 30.7774 59.8269 30.8766 59.2897 30.8766Z" fill="black"/>
<path d="M42.1669 30.8066C41.8399 30.8066 41.5888 30.6664 41.4136 30.3861C41.2384 30.1058 41.2209 29.808 41.361 29.4927L46.2837 17.7377C46.4589 17.3289 46.7451 17.1245 47.1422 17.1245C47.5626 17.1245 47.8487 17.3289 48.0006 17.7377L52.9408 29.5277C53.0693 29.8547 53.0518 30.1525 52.8883 30.4211C52.7364 30.6781 52.4912 30.8066 52.1525 30.8066C51.9773 30.8066 51.8079 30.7598 51.6444 30.6664C51.4926 30.5613 51.3817 30.4211 51.3116 30.246L46.9319 19.4545H47.4925L43.0078 30.246C42.926 30.4328 42.8034 30.573 42.6399 30.6664C42.488 30.7598 42.3304 30.8066 42.1669 30.8066Z" fill="black"/>
<defs>
<clipPath id="clip0_9311_32184">
<rect width="31.5961" height="31.5961" fill="white" transform="translate(4.66602 8.20215)"/>
</clipPath>
</defs>
</svg>
