<svg width="24" height="25" viewBox="0 0 24 25" fill="none" xmlns="http://www.w3.org/2000/svg">
<path d="M11.9998 15.7019C11.8878 15.7019 11.7822 15.6813 11.683 15.6399C11.5837 15.5986 11.4884 15.5323 11.397 15.4409L6.45305 10.4969C6.28305 10.3269 6.20221 10.1239 6.21055 9.88769C6.21888 9.65152 6.30805 9.44844 6.47805 9.27844C6.64805 9.10844 6.85113 9.02344 7.0873 9.02344C7.32346 9.02344 7.52655 9.10844 7.69655 9.27844L11.9998 13.6067L16.328 9.27844C16.498 9.10844 16.697 9.0276 16.9248 9.03594C17.1526 9.04427 17.3515 9.13344 17.5215 9.30344C17.6915 9.47344 17.7765 9.67652 17.7765 9.91269C17.7765 10.1489 17.6915 10.3519 17.5215 10.5219L12.6025 15.4409C12.5112 15.5323 12.4159 15.5986 12.3165 15.6399C12.2174 15.6813 12.1118 15.7019 11.9998 15.7019Z" fill="black" fill-opacity="0.6"/>
</svg>
